<mxfile host="65bd71144e">
    <diagram id="Cj2IZHVcjWoPE8zTmQlr" name="第 1 页">
        <mxGraphModel dx="770" dy="1744" grid="1" gridSize="10" guides="1" tooltips="1" connect="1" arrows="1" fold="1" page="1" pageScale="1" pageWidth="827" pageHeight="1169" math="0" shadow="0">
            <root>
                <mxCell id="0"/>
                <mxCell id="1" parent="0"/>
                <mxCell id="2" value="" style="rounded=0;whiteSpace=wrap;html=1;" parent="1" vertex="1">
                    <mxGeometry x="160" width="240" height="560" as="geometry"/>
                </mxCell>
                <mxCell id="8" value="" style="rounded=0;whiteSpace=wrap;html=1;" parent="1" vertex="1">
                    <mxGeometry x="180" y="380" width="200" height="110" as="geometry"/>
                </mxCell>
                <mxCell id="4" value="ECStack(调用栈)" style="text;html=1;align=center;verticalAlign=middle;resizable=0;points=[];autosize=1;strokeColor=none;fillColor=none;" parent="1" vertex="1">
                    <mxGeometry x="215" y="-30" width="110" height="20" as="geometry"/>
                </mxCell>
                <mxCell id="6" value="" style="rounded=0;whiteSpace=wrap;html=1;" parent="1" vertex="1">
                    <mxGeometry x="200" y="380" width="160" height="110" as="geometry"/>
                </mxCell>
                <mxCell id="7" value="" style="endArrow=none;html=1;" parent="1" target="6" edge="1">
                    <mxGeometry width="50" height="50" relative="1" as="geometry">
                        <mxPoint x="200" y="430" as="sourcePoint"/>
                        <mxPoint x="250" y="380" as="targetPoint"/>
                        <Array as="points">
                            <mxPoint x="340" y="430"/>
                        </Array>
                    </mxGeometry>
                </mxCell>
                <mxCell id="10" value="GEC(global exection context)" style="text;html=1;strokeColor=none;fillColor=none;align=center;verticalAlign=middle;whiteSpace=wrap;rounded=0;" parent="1" vertex="1">
                    <mxGeometry x="200" y="350" width="160" height="30" as="geometry"/>
                </mxCell>
                <mxCell id="11" value="VO(variable Object):GO" style="text;html=1;strokeColor=none;fillColor=none;align=center;verticalAlign=middle;whiteSpace=wrap;rounded=0;" parent="1" vertex="1">
                    <mxGeometry x="210" y="390" width="150" height="30" as="geometry"/>
                </mxCell>
                <mxCell id="13" value="开始执行代码&lt;br&gt;var name=&quot;why&lt;br&gt;console.log(num1&quot;)" style="text;html=1;strokeColor=none;fillColor=none;align=center;verticalAlign=middle;whiteSpace=wrap;rounded=0;" parent="1" vertex="1">
                    <mxGeometry x="230" y="450" width="110" height="30" as="geometry"/>
                </mxCell>
                <mxCell id="14" value="" style="rounded=0;whiteSpace=wrap;html=1;fillColor=#333333;" parent="1" vertex="1">
                    <mxGeometry x="575" y="80" width="160" height="90" as="geometry"/>
                </mxCell>
                <mxCell id="20" style="edgeStyle=none;html=1;exitX=0.75;exitY=1;exitDx=0;exitDy=0;entryX=0.5;entryY=0;entryDx=0;entryDy=0;" parent="1" target="17" edge="1">
                    <mxGeometry relative="1" as="geometry">
                        <mxPoint x="667.5" y="130" as="sourcePoint"/>
                    </mxGeometry>
                </mxCell>
                <mxCell id="26" value="" style="edgeStyle=none;html=1;" parent="1" source="15" target="25" edge="1">
                    <mxGeometry relative="1" as="geometry"/>
                </mxCell>
                <mxCell id="15" value="{&lt;br&gt;&lt;span style=&quot;white-space: pre&quot;&gt;&#9;&lt;/span&gt;&amp;nbsp; &amp;nbsp; &amp;nbsp; &amp;nbsp; &amp;nbsp; &amp;nbsp; &amp;nbsp; &amp;nbsp; &amp;nbsp; name: undefind&lt;br&gt;&amp;nbsp; &amp;nbsp; &amp;nbsp; &lt;span style=&quot;white-space: pre&quot;&gt;&#9;&lt;/span&gt;&lt;span style=&quot;white-space: pre&quot;&gt;&#9;&lt;/span&gt;&amp;nbsp;foo:0xa00&lt;br&gt;}" style="text;html=1;align=center;verticalAlign=middle;whiteSpace=wrap;rounded=0;" parent="1" vertex="1">
                    <mxGeometry x="520" y="100" width="190" height="30" as="geometry"/>
                </mxCell>
                <mxCell id="16" value="GlobalObject" style="text;html=1;align=center;verticalAlign=middle;resizable=0;points=[];autosize=1;strokeColor=none;fillColor=none;" parent="1" vertex="1">
                    <mxGeometry x="590" y="60" width="90" height="20" as="geometry"/>
                </mxCell>
                <mxCell id="17" value="[[scope]]:parents scope&lt;br&gt;函数执行体（代码块 ）" style="rounded=1;whiteSpace=wrap;html=1;fillColor=#333333;" parent="1" vertex="1">
                    <mxGeometry x="590" y="250" width="140" height="80" as="geometry"/>
                </mxCell>
                <mxCell id="19" value="存储函数空间（foo）0xa00" style="text;html=1;align=center;verticalAlign=middle;resizable=0;points=[];autosize=1;strokeColor=none;fillColor=none;" parent="1" vertex="1">
                    <mxGeometry x="580" y="230" width="160" height="20" as="geometry"/>
                </mxCell>
                <mxCell id="21" value="函数执行上下文(FEC) foo&lt;br&gt;Functional Exection Context" style="text;html=1;align=center;verticalAlign=middle;resizable=0;points=[];autosize=1;strokeColor=none;fillColor=none;" parent="1" vertex="1">
                    <mxGeometry x="195" y="190" width="170" height="30" as="geometry"/>
                </mxCell>
                <mxCell id="22" value="" style="rounded=0;whiteSpace=wrap;html=1;fillColor=#333333;" parent="1" vertex="1">
                    <mxGeometry x="180" y="220" width="200" height="130" as="geometry"/>
                </mxCell>
                <mxCell id="23" value="VO(variableObject):AO&lt;br&gt;scope chain: AO+GO" style="rounded=0;whiteSpace=wrap;html=1;fillColor=#333333;" parent="1" vertex="1">
                    <mxGeometry x="190" y="220" width="180" height="60" as="geometry"/>
                </mxCell>
                <mxCell id="32" style="edgeStyle=none;html=1;exitX=0.5;exitY=1;exitDx=0;exitDy=0;entryX=0.5;entryY=0;entryDx=0;entryDy=0;" parent="1" source="25" target="31" edge="1">
                    <mxGeometry relative="1" as="geometry"/>
                </mxCell>
                <mxCell id="25" value="{&lt;br&gt;&lt;span style=&quot;white-space: pre&quot;&gt;&#9;&lt;/span&gt;num:undfined&lt;br&gt;&lt;span style=&quot;white-space: pre&quot;&gt;&#9;&lt;/span&gt;m: undefined&lt;br&gt;&lt;span style=&quot;white-space: pre&quot;&gt;&#9;&lt;/span&gt;n: undefined&lt;br&gt;&amp;nbsp; &amp;nbsp;&lt;br&gt;}" style="whiteSpace=wrap;html=1;fillColor=#333333;" parent="1" vertex="1">
                    <mxGeometry x="420" y="80" width="140" height="100" as="geometry"/>
                </mxCell>
                <mxCell id="27" value="AO(activation bject) foo" style="text;html=1;align=center;verticalAlign=middle;resizable=0;points=[];autosize=1;strokeColor=none;fillColor=none;" parent="1" vertex="1">
                    <mxGeometry x="420" y="60" width="140" height="20" as="geometry"/>
                </mxCell>
                <mxCell id="28" value="" style="rounded=0;whiteSpace=wrap;html=1;fillColor=#333333;" parent="1" vertex="1">
                    <mxGeometry x="190" y="280" width="180" height="60" as="geometry"/>
                </mxCell>
                <mxCell id="30" value="开始执行代码&lt;br&gt;foo()&lt;br&gt;console.log(m)" style="text;html=1;strokeColor=none;fillColor=none;align=center;verticalAlign=middle;whiteSpace=wrap;rounded=0;" parent="1" vertex="1">
                    <mxGeometry x="215" y="295" width="110" height="30" as="geometry"/>
                </mxCell>
                <mxCell id="31" value="{&lt;br&gt;&lt;span style=&quot;white-space: pre&quot;&gt;&#9;&lt;/span&gt;num:123&lt;br&gt;&lt;span style=&quot;white-space: pre&quot;&gt;&#9;&lt;/span&gt;m: 10&lt;br&gt;&lt;span style=&quot;white-space: pre&quot;&gt;&#9;&lt;/span&gt;n: 20&lt;br&gt;}" style="whiteSpace=wrap;html=1;fillColor=#333333;" parent="1" vertex="1">
                    <mxGeometry x="420" y="380" width="140" height="80" as="geometry"/>
                </mxCell>
                <mxCell id="33" value="[[scope]]:parent scope&lt;br&gt;函数执行体（代码块 ）" style="rounded=1;whiteSpace=wrap;html=1;fillColor=#333333;" vertex="1" parent="1">
                    <mxGeometry x="590" y="370" width="140" height="80" as="geometry"/>
                </mxCell>
                <mxCell id="34" value="存储函数空间（bar）0xb00" style="text;html=1;align=center;verticalAlign=middle;resizable=0;points=[];autosize=1;strokeColor=none;fillColor=none;" vertex="1" parent="1">
                    <mxGeometry x="580" y="350" width="160" height="20" as="geometry"/>
                </mxCell>
                <mxCell id="36" style="edgeStyle=none;html=1;exitX=0.5;exitY=1;exitDx=0;exitDy=0;entryX=0;entryY=0;entryDx=0;entryDy=0;" edge="1" parent="1" source="35" target="33">
                    <mxGeometry relative="1" as="geometry"/>
                </mxCell>
                <mxCell id="35" value="&lt;span&gt;bar:0xb00&lt;/span&gt;" style="rounded=0;whiteSpace=wrap;html=1;" vertex="1" parent="1">
                    <mxGeometry x="452" y="145" width="90" height="20" as="geometry"/>
                </mxCell>
                <mxCell id="38" value="函数执行上下文(FEC) bar&lt;br&gt;Functional Exection Context" style="text;html=1;align=center;verticalAlign=middle;resizable=0;points=[];autosize=1;strokeColor=none;fillColor=none;" vertex="1" parent="1">
                    <mxGeometry x="195" y="20" width="170" height="30" as="geometry"/>
                </mxCell>
                <mxCell id="39" value="" style="rounded=0;whiteSpace=wrap;html=1;fillColor=#333333;" vertex="1" parent="1">
                    <mxGeometry x="185" y="50" width="200" height="130" as="geometry"/>
                </mxCell>
                <mxCell id="40" value="VO(variableObject):AO&lt;br&gt;scope chain: AO+ParentScope" style="rounded=0;whiteSpace=wrap;html=1;fillColor=#333333;" vertex="1" parent="1">
                    <mxGeometry x="195" y="50" width="180" height="60" as="geometry"/>
                </mxCell>
                <mxCell id="41" value="" style="rounded=0;whiteSpace=wrap;html=1;fillColor=#333333;" vertex="1" parent="1">
                    <mxGeometry x="195" y="110" width="180" height="60" as="geometry"/>
                </mxCell>
                <mxCell id="42" value="开始执行代码&lt;br&gt;console.log(name)" style="text;html=1;strokeColor=none;fillColor=none;align=center;verticalAlign=middle;whiteSpace=wrap;rounded=0;" vertex="1" parent="1">
                    <mxGeometry x="225" y="125" width="110" height="30" as="geometry"/>
                </mxCell>
                <mxCell id="43" value="" style="edgeStyle=none;html=1;" edge="1" target="44" parent="1">
                    <mxGeometry relative="1" as="geometry">
                        <mxPoint x="530" y="-3.6000000000001364" as="sourcePoint"/>
                    </mxGeometry>
                </mxCell>
                <mxCell id="44" value="{&amp;nbsp; &amp;nbsp; }" style="whiteSpace=wrap;html=1;fillColor=#333333;" vertex="1" parent="1">
                    <mxGeometry x="427" y="-65" width="140" height="100" as="geometry"/>
                </mxCell>
                <mxCell id="45" value="AO(activation bject) bar" style="text;html=1;align=center;verticalAlign=middle;resizable=0;points=[];autosize=1;strokeColor=none;fillColor=none;" vertex="1" parent="1">
                    <mxGeometry x="427" y="-85" width="140" height="20" as="geometry"/>
                </mxCell>
            </root>
        </mxGraphModel>
    </diagram>
</mxfile>